<mxfile host="app.diagrams.net" modified="2023-06-25T14:07:16.058Z" agent="Mozilla/5.0 (X11; Linux x86_64) AppleWebKit/537.36 (KHTML, like Gecko) Chrome/114.0.0.0 Safari/537.36" version="21.5.0" etag="jhkjazsSByzpbNHbEWv3" type="github">
  <diagram name="Page-1" id="WriZBPEa5ytxyu4HoaKR">
    <mxGraphModel>
      <root>
        <mxCell id="0" />
        <mxCell id="1" parent="0" />
      </root>
    </mxGraphModel>
  </diagram>
</mxfile>
